<svg id="Layer_1" data-name="Layer 1" xmlns="http://www.w3.org/2000/svg" xmlns:xlink="http://www.w3.org/1999/xlink" viewBox="0 0 183.27 183.27"><defs><style>.cls-1{fill:none;}.cls-2{fill:#171024;}.cls-3{clip-path:url(#clip-path);}.cls-4{fill:url(#linear-gradient);}.cls-5{fill:#fff;}.cls-6{clip-path:url(#clip-path-2);}.cls-7{fill:#ccc;}.cls-8{fill:#b3b3b3;}.cls-9{fill:url(#linear-gradient-2);}.cls-10{fill:#ed1c24;}.cls-11{fill:url(#linear-gradient-3);}.cls-12{fill:url(#linear-gradient-4);}.cls-13{fill:url(#linear-gradient-5);}.cls-14{fill:#999;}</style><clipPath id="clip-path"><circle class="cls-1" cx="663.1" cy="-531.93" r="581.18"/></clipPath><linearGradient id="linear-gradient" x1="91.64" x2="91.64" y2="183.27" gradientUnits="userSpaceOnUse"><stop offset="0" stop-color="#c1272d"/><stop offset="1" stop-color="#4c1c24"/></linearGradient><clipPath id="clip-path-2"><path class="cls-1" d="M150.19,83.53,68.6,36.42a9.39,9.39,0,0,0-14.08,8.13v94.22a9.39,9.39,0,0,0,14.08,8.12l81.59-47.11A9.38,9.38,0,0,0,150.19,83.53Z"/></clipPath><linearGradient id="linear-gradient-2" x1="91.62" y1="138.82" x2="97.67" y2="138.82" xlink:href="#linear-gradient"/><linearGradient id="linear-gradient-3" x1="85.22" y1="119.5" x2="101.41" y2="119.5" xlink:href="#linear-gradient"/><linearGradient id="linear-gradient-4" x1="85.22" y1="116.82" x2="101.41" y2="116.82" xlink:href="#linear-gradient"/><linearGradient id="linear-gradient-5" x1="93.49" y1="94.64" x2="112.12" y2="94.64" xlink:href="#linear-gradient"/></defs><circle class="cls-2" cx="663.1" cy="-531.93" r="581.18"/><circle class="cls-4" cx="91.64" cy="91.64" r="91.64"/><path class="cls-5" d="M150.18,83.52,68.63,36.44a9.4,9.4,0,0,0-14.1,8.14v94.16a9.4,9.4,0,0,0,14.1,8.14L150.18,99.8A9.4,9.4,0,0,0,150.18,83.52Z"/><g class="cls-6"><polygon class="cls-7" points="164.26 106.76 103.53 74.18 88.04 93.82 87.84 151.17 164.26 106.76"/><polygon class="cls-8" points="102.6 86.21 142.14 108.01 96.24 140.68 102.6 86.21"/><rect class="cls-9" x="91.62" y="127.61" width="6.06" height="22.43"/><rect class="cls-10" x="87.84" y="126.48" width="4.31" height="24.69"/><path class="cls-11" d="M101.39,125.5a7.67,7.67,0,0,1-7.69,7.67h-.81a7.69,7.69,0,0,1-7.67-7.69l0-12a7.68,7.68,0,0,1,7.69-7.67h.82a7.67,7.67,0,0,1,7.66,7.69Z"/><path class="cls-12" d="M93.75,105.83h-.82a7.68,7.68,0,0,0-7.69,7.67l0,12a7.63,7.63,0,0,0,.35,2.3,7.67,7.67,0,0,1,7.34-5.37h.81A7.68,7.68,0,0,1,101,127.8a7.53,7.53,0,0,0,.35-2.3l0-12A7.67,7.67,0,0,0,93.75,105.83Z"/><path class="cls-10" d="M112.06,112.81a7.68,7.68,0,0,1-7.69,7.67l-21.76,0a7.68,7.68,0,0,1-7.67-7.69L75,76.44a7.67,7.67,0,0,1,7.69-7.66l21.76,0a7.69,7.69,0,0,1,7.67,7.69Z"/><path class="cls-13" d="M104.45,68.81l-10.88,0-.08,51.67,10.88,0a7.68,7.68,0,0,0,7.69-7.67l.06-36.31a7.68,7.68,0,0,0-7.67-7.69Z"/><path class="cls-5" d="M88,95.79,75,95.77v2.84l13.07,0a1.42,1.42,0,0,0,0-2.84Z"/><path class="cls-5" d="M88,100.6l-13.07,0v2.84l13.06,0a1.42,1.42,0,1,0,0-2.84Z"/><path class="cls-5" d="M89.44,106.83A1.43,1.43,0,0,0,88,105.41l-13.07,0v2.84l13.07,0A1.43,1.43,0,0,0,89.44,106.83Z"/><path class="cls-5" d="M88,91,75,91V93.8l13.07,0A1.42,1.42,0,0,0,88,91Z"/><path class="cls-5" d="M89.43,111.64A1.42,1.42,0,0,0,88,110.22L75,110.2V113l13.07,0A1.43,1.43,0,0,0,89.43,111.64Z"/><path class="cls-5" d="M88.07,76.55,75,76.53v2.84l13.06,0a1.42,1.42,0,0,0,0-2.84Z"/><path class="cls-5" d="M88.05,86.17,75,86.15V89l13.07,0a1.42,1.42,0,0,0,0-2.84Z"/><path class="cls-5" d="M88.06,81.36,75,81.34v2.84l13.06,0a1.42,1.42,0,1,0,0-2.84Z"/><path class="cls-14" d="M99,93.84l13.07,0V91L99,91a1.42,1.42,0,0,0,0,2.84Z"/><path class="cls-14" d="M99,89l13.07,0V86.21L99,86.19A1.42,1.42,0,1,0,99,89Z"/><path class="cls-14" d="M97.62,82.8A1.42,1.42,0,0,0,99,84.22l13.06,0V81.4L99,81.38A1.42,1.42,0,0,0,97.62,82.8Z"/><path class="cls-14" d="M99,98.65l13.07,0V95.83L99,95.81a1.42,1.42,0,0,0,0,2.84Z"/><path class="cls-14" d="M97.63,78a1.42,1.42,0,0,0,1.42,1.42l13.06,0V76.69a.34.34,0,0,0,0-.1l-13.06,0A1.42,1.42,0,0,0,97.63,78Z"/><path class="cls-14" d="M99,113.07l13.07,0v-2.84l-13.06,0a1.42,1.42,0,1,0,0,2.83Z"/><path class="cls-14" d="M99,103.46l13.06,0v-2.84l-13.07,0a1.42,1.42,0,1,0,0,2.84Z"/><path class="cls-14" d="M99,108.27l13.07,0v-2.84l-13.07,0a1.42,1.42,0,1,0,0,2.84Z"/><path class="cls-5" d="M96.62,127.23a3.32,3.32,0,1,1-3.31-3.31A3.32,3.32,0,0,1,96.62,127.23Z"/></g></svg>